<svg xmlns="http://www.w3.org/2000/svg" viewBox="0 0 283.46 283.46"><defs><style>.cls-1{fill:none;}.cls-2{fill:#f09293;}</style></defs><title>資產 8</title><g id="圖層_2" data-name="圖層 2"><g id="圖層_1-2" data-name="圖層 1"><rect class="cls-1" width="283.46" height="283.46"/><path class="cls-2" d="M195.73,65.73h-108a4,4,0,0,0,0,8h104v136h-104a4,4,0,1,0,0,8h108a4,4,0,0,0,4-4v-144A4,4,0,0,0,195.73,65.73Z"/><path class="cls-2" d="M83.73,141.73a4,4,0,0,0,4,4h62.35L129.9,165.9a4,4,0,0,0,5.66,5.66l27-27a4.28,4.28,0,0,0,.5-.61c.06-.1.11-.2.16-.3s.15-.25.21-.39.08-.27.12-.4a2.56,2.56,0,0,0,.1-.34,3.78,3.78,0,0,0,0-1.57,1.91,1.91,0,0,0-.1-.34c0-.14-.07-.28-.12-.41s-.14-.26-.21-.38-.1-.21-.16-.31a4.92,4.92,0,0,0-.5-.61l-27-27a4,4,0,0,0-5.66,5.66l20.18,20.17H87.73A4,4,0,0,0,83.73,141.73Z"/></g></g></svg>