<svg xmlns="http://www.w3.org/2000/svg" viewBox="0 0 283.46 283.46"><defs><style>.cls-1,.cls-2{fill:#f09293;}.cls-1{fill-rule:evenodd;}.cls-3{fill:none;}</style></defs><title>資產 1</title><g id="圖層_2" data-name="圖層 2"><g id="圖層_1-2" data-name="圖層 1"><path class="cls-1" d="M161.91,233.53a18.45,18.45,0,0,1-.54,3.33c-.2.57-.36.57-1.17.57-3.35,0-5.41-.12-7.78-.12-1,0-2.16.07-3.43.07-.34,0-.52-.07-.52-.27s.13-.23.42-.23l.52,0c.9-.14,1-.5,1.08-2.48,0-.84,0-2,0-3.22v-3.79c0-3.56,0-3.82-.07-4.51a1.06,1.06,0,0,0-.77-1.1,6.1,6.1,0,0,0-.82-.12c-.25,0-.45-.07-.45-.25s.17-.24.62-.24c1.34,0,2.44.07,3.37.07.13,0,3-.07,3.8-.07.41,0,.5.1.5.21s-.19.28-.39.28-.35,0-.67.09c-.63.11-.79.5-.84,1.27s-.08,1-.08,4.66v3.51c0,2.05-.08,3.61.27,4.08s.73.53,2.58.53a6.87,6.87,0,0,0,2.47-.26c.61-.24,1.09-.77,1.37-2,0-.24.11-.44.32-.44S161.91,233.24,161.91,233.53Z"/><path class="cls-1" d="M146.59,218.67c0,.18-.13.68-.18,1.27s-.13,1.39-.18,2.39c0,.32-.09.42-.27.42s-.22-.15-.24-.39a5.82,5.82,0,0,0-.1-.77c-.16-.55-.53-1-1.64-1-.92-.08-3.21-.13-4-.13-.16,0-.21.07-.21.28v5.64c0,.17,0,.29.21.29.71,0,2.45,0,3.42,0,1.37,0,1.69-.08,2-.58.16-.22.23-.32.35-.32s.18.18.18.32-.16,1.15-.2,2c0,.54-.05,1.81-.05,2.09s0,.5-.23.5-.24-.16-.24-.43-.05-.35-.08-.55c-.1-.67-.44-1.12-1.63-1.21-.73-.05-2.87-.08-3.58-.08-.13,0-.16.1-.16.32v1.72a48.61,48.61,0,0,0,.13,5c.08.71.23,1.21,1.14,1.35l.85.1c.38,0,.54.08.54.23s-.07.27-.54.27c-1.39,0-1.59-.07-4.2-.07-1.77,0-3.23.07-3.85.07-.37,0-.53-.1-.53-.24s.08-.23.45-.26a5.42,5.42,0,0,0,.65-.1c.67-.09.8-.74.87-1.76.11-1.33.11-2.46.11-4.84v-4.37c0-4.05,0-4.35-.08-5.14s-.26-1.32-.95-1.47a7.42,7.42,0,0,0-.84-.1c-.27,0-.5-.06-.5-.25s.18-.24.58-.24c1.43,0,2.69.06,3.79.06l7.31,0a5.54,5.54,0,0,0,1.26-.12,1.85,1.85,0,0,1,.48-.07A.17.17,0,0,1,146.59,218.67Z"/><path class="cls-1" d="M115.63,233.75a22.34,22.34,0,0,1-.32,3.11c-.18.55-.35.57-1.17.57-3.33,0-4.91-.12-7.28-.12-1,0-2.11.07-3.38.07-.42,0-.52-.12-.52-.27s.08-.23.45-.23a5.35,5.35,0,0,0,.65-.07c.72-.12.79-1,.87-2.48,0-.82,0-2,0-3.2v-3.79c0-3.56,0-4-.07-4.66a1,1,0,0,0-.79-1c-.21,0-.45,0-.68-.07s-.37-.15-.37-.28.12-.21.47-.21c1.34,0,2.38.07,3.32.07l6.46,0a6.39,6.39,0,0,0,1.27-.11,1.23,1.23,0,0,1,.36-.07c.11,0,.16.1.14.23a7.77,7.77,0,0,0-.17,1c0,.55,0,1-.13,2.34,0,.17-.1.35-.25.35s-.22-.1-.24-.29-.06-.48-.13-.81c-.12-.49-.4-.79-1.46-.9-.82,0-2.64-.09-3.34-.09-.11,0-.16.07-.16.22v4.56c0,.14,0,.19.16.19.68,0,2.21,0,3.08,0,1.22,0,1.53-.13,1.79-.55.11-.19.21-.27.3-.27s.18.16.18.27-.16,1.2-.18,2c0,.47,0,1.61,0,1.86s-.08.37-.23.37-.22-.1-.24-.34,0-.28,0-.42c-.13-.68-.38-1.08-1.55-1.15-.69-.05-2.38-.08-3.08-.08-.12,0-.14.05-.14.18v1.56c0,.73,0,1.74,0,2.61,0,1.52.29,1.86,2.82,1.86a6.43,6.43,0,0,0,2.06-.25c.63-.24.87-.77,1.07-1.75.06-.26.16-.37.3-.37S115.63,233.48,115.63,233.75Z"/><path class="cls-1" d="M60.48,237.14c0-.13.1-.23.39-.26a2.68,2.68,0,0,1-.61-.1c-.87-.11-1.42-.71-2.27-2.65-1.68-3.78-5.87-13.3-6.5-14.68-.43-.89-.66-1.25-.9-1.25s-.55.38-1,1.44l-6.63,15c-.52,1.2-1,2-1.89,2.13a5.86,5.86,0,0,1-.79.1c-.3,0-.48.06-.48.26s.16.24.5.24c1.24,0,2.88-.07,3.15-.07,1.32,0,2.16.07,3.28.07.32,0,.53,0,.53-.24s-.08-.26-.45-.26c-.2,0-.6,0-.87-.1-.52,0-.75-.27-.75-.74a5.31,5.31,0,0,1,.41-1.59l.76-2c.06-.13.09-.18.22-.18h5.69a.22.22,0,0,1,.21.16l1.66,3.93c.08.23,0,.41-.31.45s-.34.16-.34.31.15.22.55.22c1.58,0,4.42.07,6.85.07h.07C60.59,237.37,60.48,237.31,60.48,237.14Zm-8.94-6.88H47.29c-.08,0-.13,0-.1-.13l2.11-5.32c.05-.13.1-.16.16,0l2.19,5.32C51.68,230.18,51.68,230.26,51.54,230.26Z"/><path class="cls-1" d="M80,221.33c0,.11,0,.26-.37.28l-.5,0c-.74.11-1,.42-1.08,1.79-.19,4.06-.26,8.46-.29,12.78,0,1.24-.14,1.46-.47,1.46s-1.14-.54-2.91-2c-1.53-1.29-3.3-2.81-4.37-3.77s-3.11-2.71-5-4.45l.21,7c.06,1.49.11,2.11.77,2.29a5.92,5.92,0,0,0,1.13.14c.37.06.47.13.47.26s-.15.24-.55.24c-.63,0-1.29,0-2.85-.07-.63,0-2.44.07-3.19.07.4,0,.55-.07.55-.24s-.15-.26-.47-.26H61l.54,0c.92-.11,1.11-.61,1.19-2.61.13-4.43.13-9.43.23-12.31,0-.72.09-1.1.42-1.1.12,0,.22,0,.84.47,1.07.85,4.49,3.79,7.26,6.22,2.45,2.16,3.61,3.16,4.27,3.72l-.13-7.6c0-1.19-.19-1.76-1.16-1.92-.27,0-.55-.06-.9-.09s-.4-.15-.4-.25.2-.24.43-.24c.81,0,2.35.07,3.35.07.55,0,1.71-.07,2.61-.07C79.88,221.12,80,221.22,80,221.33Z"/><path class="cls-1" d="M100.9,221.33c0,.11-.05.26-.37.28l-.5,0c-.75.11-1,.42-1.07,1.79-.19,4.06-.27,8.46-.3,12.78,0,1.24-.15,1.46-.47,1.46s-1.14-.54-2.9-2c-1.55-1.29-3.32-2.81-4.38-3.77s-3.1-2.71-5-4.45l.22,7c0,1.49.1,2.11.76,2.29a6,6,0,0,0,1.13.14c.37.06.47.13.47.26s-.15.24-.55.24c-.62,0-1.29,0-2.86-.07-.62,0-2.43.07-3.17.07-.37,0-.5-.07-.5-.24s.1-.23.39-.26l.63,0c.91-.11,1.11-.61,1.19-2.61.13-4.43.13-9.43.22-12.31,0-.72.1-1.1.42-1.1.13,0,.23,0,.84.47,1.08.85,4.51,3.79,7.27,6.22,2.45,2.16,3.62,3.16,4.27,3.72l-.13-7.6c0-1.19-.2-1.76-1.16-1.92-.28,0-.55-.06-.9-.09s-.39-.15-.39-.25.19-.24.42-.24c.82,0,2.35.07,3.35.07.55,0,1.71-.07,2.61-.07C100.8,221.12,100.9,221.22,100.9,221.33Z"/><path class="cls-1" d="M222.46,233.75a20.69,20.69,0,0,1-.33,3.11c-.16.55-.34.57-1.16.57-3.33,0-4.91-.12-7.28-.12-1.05,0-2.11.07-3.37.07-.43,0-.53-.12-.53-.27s.08-.23.45-.23a5.2,5.2,0,0,0,.64-.07c.73-.12.8-1,.87-2.48,0-.82,0-2,0-3.2v-3.79c0-3.56,0-4-.06-4.66a1,1,0,0,0-.81-1c-.19,0-.44,0-.66-.07s-.37-.15-.37-.28.13-.21.47-.21c1.34,0,2.38.07,3.33.07l6.45,0a6.39,6.39,0,0,0,1.27-.11,1.18,1.18,0,0,1,.35-.07c.12,0,.17.1.15.23a9.4,9.4,0,0,0-.18,1c0,.55-.05,1-.12,2.34,0,.17-.1.35-.25.35s-.22-.1-.24-.29-.06-.48-.13-.81c-.13-.49-.4-.79-1.47-.9-.82,0-2.62-.09-3.33-.09-.11,0-.16.07-.16.22v4.56c0,.14,0,.19.16.19.68,0,2.21,0,3.08,0,1.22,0,1.53-.13,1.79-.55.11-.19.2-.27.3-.27s.18.16.18.27-.16,1.2-.18,2c0,.47-.05,1.61-.05,1.86s-.07.37-.22.37-.23-.1-.26-.34,0-.28,0-.42c-.13-.68-.39-1.08-1.55-1.15-.69-.05-2.38-.08-3.08-.08-.12,0-.14.05-.14.18v1.56c0,.73,0,1.74,0,2.61,0,1.52.29,1.86,2.82,1.86a6.43,6.43,0,0,0,2.06-.25c.63-.24.87-.77,1.08-1.75.05-.26.14-.37.29-.37S222.46,233.48,222.46,233.75Z"/><path class="cls-1" d="M209.61,221.36c0,.13-.08.23-.37.25s-.34,0-.69.09c-.68.13-1.05.63-1.65,2.27-.93,2.5-3,8-4.74,12.3-.3.72-.54,1.41-.94,1.41s-.52-.35-.87-1.09l-4.42-8.82c-1,2.41-2.79,6.26-3.88,8.64-.37.78-.7,1.27-1.05,1.27s-.47-.35-.92-1.46l-5-12.94c-.37-.95-.63-1.42-1.19-1.55a5.1,5.1,0,0,0-.65-.12c-.27-.05-.35-.15-.35-.28s.16-.21.48-.21c1.39,0,3,.07,3.35.07.65,0,2.34-.07,3.55-.07.3,0,.48.1.48.24s-.16.25-.38.25l-.55.07c-.29,0-.47.2-.47.47a9.68,9.68,0,0,0,.58,1.92c.19.61,1.79,5.24,2.58,7.23l3.85-9.39c.22-.55.4-.74.61-.74s.45.37.78,1l4.42,9.19c.7-1.92,1.7-5,2.31-7.11a11.39,11.39,0,0,0,.47-1.88c0-.42-.15-.68-1.36-.77-.25,0-.43-.1-.43-.23s0-.26.45-.26c1.5,0,2.69.07,2.88.07s1.87-.05,2.66-.05C209.42,221.14,209.61,221.19,209.61,221.36Z"/><path class="cls-1" d="M243.32,236.88a5.15,5.15,0,0,1-.59-.07c-.69-.09-1.21-.42-2.36-1.74a50.54,50.54,0,0,1-4.12-5.65c1.82-1.18,2.95-2.55,2.95-4.24a3.58,3.58,0,0,0-2.11-3.35,10.36,10.36,0,0,0-4.66-.71c-1.13,0-3.46.07-3.83.07s-2.55-.07-3.45-.07c-.37,0-.45.11-.45.24s.09.25.37.25.37,0,.77.09.87.36.92,1.27c.05.7.08,1,.08,4.37v3.79c0,2.11,0,3.54-.13,4.44s-.24,1.15-.69,1.24c-.26.05-.58.05-.78.07s-.4.11-.4.23.08.27.45.27c.73,0,3.06-.07,3.31-.07s2.75.07,4.27.07c.32,0,.43-.1.43-.21s0-.26-.4-.29a5.21,5.21,0,0,1-1-.14c-.67-.18-.8-.62-.85-1.17s-.1-1.69-.1-3.3V231a.16.16,0,0,1,.18-.18l1.48,0a.27.27,0,0,1,.26.12c.42.64.79,1.37,1.84,3.11a8.26,8.26,0,0,0,2.14,2.59c.81.52,1.88.76,4.46.76h1.94c.2,0,.45,0,.45-.21S243.55,236.91,243.32,236.88Zm-9-7.91a2.49,2.49,0,0,1-1.37.34,4.34,4.34,0,0,1-1.82-.3.38.38,0,0,1-.21-.32v-5.75a.21.21,0,0,1,.15-.24,2.26,2.26,0,0,1,.82-.08c1.12,0,3.21.73,3.21,3.78A3.37,3.37,0,0,1,234.33,229Z"/><path class="cls-1" d="M173.11,220.81c-6.52,0-9.6,4-9.6,8.53,0,3.8,2.85,8.34,9.46,8.34,5.86,0,9.36-3.8,9.36-8.84C182.33,224.62,178.78,220.81,173.11,220.81Zm.45,15.38c-3.7,0-5.28-3.95-5.28-7.93,0-5,2.16-6,4.07-6,4,0,5.21,4.3,5.21,7.59C177.56,235.67,174.93,236.19,173.56,236.19Z"/><path class="cls-2" d="M195.55,212.41a2.59,2.59,0,1,1,0-5.17,51.23,51.23,0,0,0,0-102.46c-12.16,0-33.19,28-51.75,52.78-21.16,28.21-41.14,54.85-55.89,54.85A56.4,56.4,0,0,1,85.39,99.66a56.4,56.4,0,0,1,112.69,0,56.4,56.4,0,0,1-2.53,112.75ZM87.91,104.78a51.23,51.23,0,0,0,0,102.46c12.17,0,33.2-28,51.75-52.78,19.92-26.56,38.8-51.74,53.25-54.59A51.23,51.23,0,0,0,90.5,102.19v2.59Z"/><circle class="cls-2" cx="141.73" cy="102.19" r="6.73"/><circle class="cls-2" cx="101.37" cy="129.1" r="6.73"/><circle class="cls-2" cx="74.65" cy="169.46" r="6.73"/><path class="cls-2" d="M141.73,158.59a2.58,2.58,0,0,1-2.58-2.58V102.19a2.59,2.59,0,1,1,5.17,0V156A2.59,2.59,0,0,1,141.73,158.59Z"/><path class="cls-2" d="M129.81,174.35a2.6,2.6,0,0,1-2.15-1.15L99.22,130.53a2.58,2.58,0,0,1,4.3-2.87L132,170.33a2.59,2.59,0,0,1-2.15,4Z"/><path class="cls-2" d="M114.82,192.78a2.51,2.51,0,0,1-1.18-.29L73.46,171.76a2.59,2.59,0,0,1,2.37-4.6L116,187.9a2.58,2.58,0,0,1-1.19,4.88Z"/><rect class="cls-3" width="283.46" height="283.46"/></g></g></svg>